HIERARCHY
ROOT pelvis
{
  OFFSET 0 100 0
  CHANNELS 6 Xposition Yposition Zposition Zrotation Xrotation Yrotation
  JOINT pelvis_right_femur
  {
    OFFSET -10.78128 -3.44521 -0.5502486
    CHANNELS 3 Zrotation Xrotation Yrotation
    JOINT right_femur_tibia
    {
      OFFSET -0.8047443 -44.0398 -0.1307829
      CHANNELS 3 Zrotation Xrotation Yrotation
      JOINT right_tibia_foot
      {
        OFFSET 3.006224 -47.83518 -5
        CHANNELS 3 Zrotation Xrotation Yrotation
        End Site
        {
          OFFSET 0 -5 15
        }
      }
    }
  }
  JOINT pelvis_left_femur
  {
    OFFSET 10.78128 -3.44521 -0.5502486
    CHANNELS 3 Zrotation Xrotation Yrotation
    JOINT left_femur_tibia
    {
      OFFSET 0.8047443 -44.0398 -0.1307829
      CHANNELS 3 Zrotation Xrotation Yrotation
      JOINT left_tibia_foot
      {
        OFFSET -4.370144 -48.10324 -4.275266
        CHANNELS 3 Zrotation Xrotation Yrotation
        End Site
        {
          OFFSET 0 -5 15
        }
      }
    }
  }
  JOINT pelvis_spine1
  {
    OFFSET 0 6.468898 -3.129235
    CHANNELS 3 Zrotation Xrotation Yrotation
    JOINT spine1
    {
      OFFSET 0 23.15396 4.99043
      CHANNELS 3 Zrotation Xrotation Yrotation
      JOINT spine2
      {
        OFFSET 0 20.79997 -5.064912
        CHANNELS 3 Zrotation Xrotation Yrotation
        JOINT neck
        {
          OFFSET 0 14.38658 9.616178
          CHANNELS 3 Zrotation Xrotation Yrotation
          End Site
          {
            OFFSET 0 20 0
          }
        }
      }
      JOINT right_manubrium
      {
        OFFSET -5.722621 16.35077 3.967754
        CHANNELS 3 Zrotation Xrotation Yrotation
        JOINT right_clavicle
        {
          OFFSET -13.16364 1.694482 -4.693211
          CHANNELS 3 Zrotation Xrotation Yrotation
          JOINT right_humerus
          {
            OFFSET -28.5034 -0.3100689 -2.792744
            CHANNELS 3 Zrotation Xrotation Yrotation
            JOINT right_radius
            {
              OFFSET -25.15693 0.02248979 -1.271978
              CHANNELS 3 Zrotation Xrotation Yrotation
              End Site
              {
                OFFSET -15 0 0
              }
            }
          }
        }
      }
      JOINT left_manubrium
      {
        OFFSET 5.722621 16.35077 3.967754
        CHANNELS 3 Zrotation Xrotation Yrotation
        JOINT left_clavicle
        {
          OFFSET 13.16364 1.694482 -4.693211
          CHANNELS 3 Zrotation Xrotation Yrotation
          JOINT left_humerus
          {
            OFFSET 29.39168 -1.063119 -2.237045
            CHANNELS 3 Zrotation Xrotation Yrotation
            JOINT left_radius
            {
              OFFSET 24.59957 -0.9528479 0.9047498
              CHANNELS 3 Zrotation Xrotation Yrotation
              End Site
              {
                OFFSET 15 -0 -0
              }
            }
          }
        }
      }
    }
  }
}
MOTION
Frames: 23
Frame Time: 0.0416666666667
0 103.5113 0 2.17942 -1.216983 0.2883127 1.255237 -10.04762 8.761961 -0 34.82731 -0 -5.283434 -17.99658 -2.431197 -8.034627 10.10635 -23.51552 -0 5.121996 -0 7.695929 -16.13749 26.59691 -4.332635 -5.059305 4.934393 2.004064 9.215202 -7.754133 0.8279694 22.82343 7.184805 3.256405 -23.09162 8.808305 6.375937 -19.77184 11.57753 86.31067 35.94521 -19.77865 -0 0 16.27134 -7.574181 8.237888 4.622684 5.474746 -19.48195 -1.699908 -94.79087 29.75135 22.96532 0 0 -15.94503 3.494368 17.88339 9.565927
0.3242439 103.5105 1.343231 2.019492 -1.123386 0.4821047 1.548107 -11.02771 8.669455 -0 34.76333 -0 -5.361678 -17.63412 -2.503349 -7.88022 10.26545 -23.40045 -0 5.146701 -0 7.573835 -16.39482 26.44494 -4.261517 -4.87218 4.852727 2.090866 9.189227 -7.794909 0.8283051 22.73059 7.232409 3.294174 -23.21327 8.83704 6.371836 -19.73431 11.58459 86.28826 35.92285 -19.81333 -0 0 16.1781 -7.60475 8.261837 4.646788 5.520542 -19.50323 -1.731169 -94.71375 29.71318 22.85791 0 0 -16.1929 3.54485 17.75388 9.53874
0.6569189 103.4586 2.779599 1.799367 -0.9307482 0.5824101 1.919782 -12.52806 8.41789 -0 33.48296 -0 -5.45569 -16.94254 -2.338334 -7.67944 10.46551 -23.17727 -0 5.225134 -0 7.361909 -16.81831 26.17003 -4.198093 -4.581312 4.787818 2.267655 9.151063 -7.831039 0.8360184 22.54132 7.302001 3.364628 -23.41136 8.869247 6.361544 -19.64924 11.60769 86.25051 35.89205 -19.89738 -0 0 15.97723 -7.644859 8.301536 4.665437 5.649256 -19.51956 -1.801923 -94.58508 29.64814 22.58755 0 0 -16.71805 3.638112 17.56619 9.451836
1.017922 103.2898 4.372162 1.565741 -0.5883405 0.5695701 2.262772 -14.44631 7.958921 -0 30.27825 -0 -5.534116 -15.77841 -1.798338 -7.511907 10.67988 -22.80938 -0 5.419583 -0 7.052051 -17.43509 25.73689 -4.185075 -4.191104 4.789122 2.516817 9.102322 -7.820023 0.8855323 22.21941 7.368386 3.481139 -23.69465 8.902142 6.319197 -19.48062 11.65017 86.2208 35.85141 -20.05754 -0 0 15.64104 -7.692822 8.359804 4.673433 5.890118 -19.57301 -1.89676 -94.3584 29.56222 22.06345 0 0 -17.60074 3.775537 17.32979 9.270926
1.420386 102.9365 6.194941 1.40073 -0.1173714 0.5191111 2.460045 -16.48477 7.333939 -0 25.23027 -0 -5.574005 -14.11678 -0.9185739 -7.456074 10.91976 -22.28172 -0 5.820582 -0 6.634904 -18.19412 25.12103 -4.223461 -3.804453 4.883002 2.773509 9.048037 -7.716056 0.9979439 21.84447 7.411597 3.637277 -24.02026 8.95196 6.202866 -19.20445 11.67396 86.25246 35.79602 -20.31248 -0 0 15.18761 -7.748454 8.438444 4.679661 6.23462 -19.71132 -1.961467 -93.99716 29.47016 21.29368 0 0 -18.75918 3.923485 17.05213 9.017078
1.869544 102.3787 8.305794 1.337521 0.4633777 0.5025471 2.492546 -18.37393 6.57232 -0 18.83523 -0 -5.5774 -12.16056 0.1840264 -7.525268 11.21213 -21.58606 -0 6.486045 -0 6.080108 -19.01118 24.27962 -4.298337 -3.497652 5.005482 2.973233 8.986146 -7.570098 1.128551 21.50651 7.445734 3.80675 -24.32734 9.005537 6.013879 -18.87292 11.63066 86.37988 35.73162 -20.63072 -0 0 14.64644 -7.803914 8.542103 4.692774 6.639958 -19.91446 -1.981096 -93.5185 29.36906 20.38252 0 0 -20.01223 4.054629 16.74013 8.755877
2.357271 101.65 10.75737 1.341934 1.121869 0.6033881 2.434143 -19.88116 5.740465 -0 11.92829 -0 -5.58198 -10.24224 1.361934 -7.659566 11.56564 -20.72548 -0 7.511764 -0 5.33144 -19.75832 23.16868 -4.346658 -3.295841 5.072441 3.089187 8.9188 -7.461288 1.217293 21.25925 7.490018 3.957349 -24.56911 9.035324 5.786105 -18.50399 11.50643 86.63792 35.66367 -21.00973 -0 0 14.01587 -7.848439 8.677775 4.712624 7.029262 -20.16048 -1.979701 -92.96366 29.2558 19.44532 0 0 -21.15604 4.144055 16.39806 8.557742
2.860115 100.8317 13.6289 1.325959 1.805668 0.9611297 2.412654 -20.75702 4.967039 -0 5.639535 -0 -5.658397 -8.705505 2.44764 -7.738425 11.95337 -19.71512 -0 9.08367 -0 4.305179 -20.22825 21.75024 -4.260053 -3.204023 5.026804 3.135744 8.845675 -7.448846 1.232253 21.10731 7.544071 4.064125 -24.7303 9.014911 5.568404 -18.06027 11.33025 87.05025 35.59165 -21.48339 -0 0 13.27353 -7.880257 8.85184 4.736103 7.290381 -20.42892 -2.000447 -92.39431 29.13137 18.5954 0 0 -21.99141 4.163012 16.02534 8.478069
3.360698 100.0654 17.03352 1.197551 2.477232 1.664773 2.518281 -20.70463 4.374433 -0 1.083352 -0 -5.891329 -7.727805 3.262033 -7.623098 12.29737 -18.57816 -0 11.46319 -0 2.902349 -20.09423 19.98938 -3.955561 -3.265501 4.846173 3.138367 8.732553 -7.569891 1.188206 21.00432 7.579149 4.121629 -24.83427 8.922774 5.407881 -17.56668 11.1406 87.56224 35.51684 -22.01963 -0 0 12.44654 -7.923293 9.064495 4.775961 7.297683 -20.60771 -2.079657 -91.9261 28.98283 18.00413 0 0 -22.34102 4.088044 15.61684 8.551183
3.858624 99.52113 21.02023 0.9119062 3.129475 2.669897 2.722762 -19.51288 4.009573 0 -1.224682 0 -6.333682 -7.238456 3.708297 -7.233284 12.41921 -17.38237 -0 14.92826 -0 1.086719 -18.95446 17.90842 -3.379445 -3.498402 4.562111 3.114139 8.572518 -7.800927 1.079301 20.91249 7.588564 4.115237 -24.88087 8.749465 5.316495 -17.03221 10.97975 88.13939 35.44256 -22.59222 -0 0 11.5504 -7.991785 9.317135 4.834797 7.015909 -20.62164 -2.238305 -91.65047 28.80633 17.77451 0 0 -22.14361 3.909175 15.17404 8.786414
4.36889 99.33679 25.55608 0.4960089 3.623504 3.778216 3.003466 -17.18729 3.886787 0 -1.618379 0 -6.948308 -7.180103 3.834091 -6.66094 12.06176 -16.21915 -0 19.80513 -0 -1.017568 -16.50582 15.65843 -2.552549 -3.845933 4.29633 3.061171 8.430169 -8.031747 0.901888 20.8491 7.570612 4.036222 -24.8183 8.492809 5.275553 -16.46591 10.89461 88.73935 35.3713 -23.13795 -0 0 10.64458 -8.101549 9.608307 4.924104 6.494167 -20.45353 -2.460936 -91.606 28.59846 17.91685 0 0 -21.47063 3.633852 14.7045 9.158579
4.90697 99.58154 30.54226 0.07960132 3.70716 4.671526 3.335379 -13.86571 3.971476 0 -1.058502 0 -7.608079 -7.635558 3.800747 -6.140944 10.90303 -15.15312 -0 26.41813 -0 -3.118021 -12.72481 13.52192 -1.606331 -4.171203 4.24958 2.959048 8.414734 -8.085167 0.6717493 20.88198 7.515158 3.894231 -24.57607 8.153468 5.271341 -15.91669 10.94728 89.27352 35.3117 -23.51777 -0 0 9.842219 -8.284237 9.931093 5.07066 5.828527 -20.14687 -2.702209 -91.76429 28.35323 18.35784 0 0 -20.4964 3.288155 14.22231 9.612336
5.472445 100.258 35.81074 -0.1054687 3.216834 5.067775 3.553379 -9.571929 4.10868 0 -0.5294932 0 -8.154488 -8.767057 3.779553 -5.855786 8.578469 -14.15647 -0 34.78769 -0 -4.826815 -8.134749 11.85396 -0.8080212 -4.303087 4.619742 2.77743 8.590319 -7.804868 0.4269465 21.08348 7.401659 3.721968 -24.1412 7.732481 5.341872 -15.51057 11.2081 89.58421 35.28913 -23.51594 -0 0 9.262202 -8.597556 10.2716 5.306747 5.115759 -19.80975 -2.917323 -92.01596 28.07119 18.95978 0 0 -19.43754 2.916826 13.74944 10.07946
6.077126 101.2629 41.15829 0.1413923 2.169539 5.021407 3.394222 -4.259603 4.141584 0 -0.579203 0 -8.476061 -10.4664 3.877627 -5.685719 4.701163 -13.1608 -0 43.95208 -0 -5.880053 -3.853596 10.9585 -0.427087 -4.171064 5.419816 2.506184 8.944389 -7.230509 0.2311247 21.48742 7.196359 3.564483 -23.50902 7.233272 5.47946 -15.36511 11.61407 89.50142 35.31542 -22.98121 -0 0 9.01785 -9.121878 10.60397 5.676515 4.444094 -19.51432 -3.067445 -92.26399 27.75222 19.6203 0 0 -18.47075 2.562391 13.29795 10.49903
6.713148 102.4555 46.37618 0.8350363 0.7626127 4.817643 2.755778 1.83973 4.057054 0 -1.416042 0 -8.500359 -12.42157 4.141892 -5.554847 -0.7020265 -12.18088 -0 52.38586 -0 -6.248722 -0.7887191 10.83817 -0.5688129 -3.818182 6.526173 2.160913 9.383988 -6.491788 0.1275673 22.06913 6.886482 3.449699 -22.6868 6.674637 5.627993 -15.55029 12.03798 88.92369 35.37315 -21.84567 -0 0 9.209098 -9.931916 10.89582 6.221113 3.920819 -19.30817 -3.108244 -92.43001 27.39085 20.25203 0 0 -17.74053 2.267131 12.87167 10.81924
7.353606 103.7031 51.31569 1.858077 -0.712931 4.711889 1.703737 8.25456 3.937486 0 -3.000402 0 -8.194369 -14.29625 4.569042 -5.452685 -7.214942 -11.28935 -0 58.44566 -0 -6.027607 0.7041292 11.33049 -1.163708 -3.357384 7.748949 1.752825 9.792623 -5.716285 0.115506 22.75813 6.497779 3.376245 -21.71029 6.096346 5.690825 -16.08119 12.36202 87.83884 35.41527 -20.10978 -0 0 9.915682 -11.07208 11.11329 6.964797 3.648494 -19.19586 -3.005718 -92.47931 26.98516 20.81154 0 0 -17.3142 2.051256 12.46963 11.01908
8.019604 104.8398 55.99202 3.038293 -2.009855 4.767179 0.4062142 14.52414 3.85284 0 -5.047904 0 -7.587154 -15.93961 5.106706 -5.208597 -14.25456 -10.45178 -0 60.82072 -0 -5.386603 0.8987291 12.34044 -2.015524 -2.923028 8.884844 1.257392 10.1067 -4.977783 0.143192 23.45639 6.100476 3.312336 -20.66136 5.559184 5.549397 -16.90817 12.534 86.32546 35.37613 -17.84301 -0 0 11.17738 -12.52785 11.22975 7.901297 3.6591 -19.09626 -2.775153 -92.46433 26.55225 21.35916 0 0 -17.096 1.87667 12.08795 11.14297
8.737439 105.6231 60.52241 4.058566 -2.942716 4.938287 -0.8034299 20.26953 3.81876 0 -7.156876 0 -6.760632 -17.41231 5.688571 -4.623675 -21.0166 -9.418867 -0 58.9654 -0 -4.656125 0.54834 13.84915 -2.820721 -2.660542 9.764045 0.7290352 10.27198 -4.342206 0.1584695 24.02935 5.766052 3.226955 -19.63798 5.118436 5.170088 -17.928 12.55564 84.51789 35.19737 -15.18808 -0 0 12.96397 -14.2313 11.23732 9.004185 3.8902 -18.92847 -2.492209 -92.45515 26.12116 21.95201 0 0 -16.92561 1.686025 11.7238 11.25937
9.55153 105.8477 65.0242 4.654213 -3.463451 5.125792 -1.623377 25.26501 3.770748 0 -8.936968 0 -5.801129 -18.82926 6.257079 -3.546647 -26.86439 -7.956982 -0 53.15385 -0 -4.066905 0.2576891 15.7579 -3.324973 -2.615607 10.31923 0.2365506 10.28979 -3.834604 0.1341202 24.36902 5.537411 3.108481 -18.72222 4.802596 4.609068 -19.03507 12.46883 82.57435 34.85302 -12.3329 -0 0 15.1379 -16.07389 11.14334 10.21002 4.222695 -18.65437 -2.225714 -92.50126 25.71635 22.61452 0 0 -16.65254 1.441124 11.37479 11.43505
10.50835 105.4505 69.56698 4.72867 -3.633589 5.247699 -1.918921 29.42787 3.635319 0 -10.06824 0 -4.772878 -20.24978 6.776836 -1.99815 -31.4285 -6.035487 -0 44.38161 -0 -3.665657 0.2264115 17.80299 -3.428441 -2.747957 10.5734 -0.1714878 10.20598 -3.462074 0.07110704 24.42833 5.424439 2.965611 -17.97835 4.615462 3.979181 -20.13655 12.32495 80.66452 34.35343 -9.49296 -0 0 17.48248 -17.93305 10.96897 11.42757 4.526274 -18.28504 -2.024053 -92.61484 25.35439 23.33478 0 0 -16.16159 1.13099 11.03678 11.71869
11.6201 104.5397 74.20879 4.420083 -3.568648 5.301148 -1.854619 32.7955 3.45027 0 -10.31082 0 -3.702252 -21.58824 7.245913 -0.3378197 -34.61508 -4.009712 -0 34.31331 -0 -3.312682 0.2058369 19.52904 -3.251796 -2.980827 10.61622 -0.4771365 10.07795 -3.239635 0.0006454051 24.24396 5.404295 2.82651 -17.45227 4.543732 3.414371 -21.15777 12.15648 78.94929 33.73991 -6.895933 -0 0 19.74449 -19.70179 10.7494 12.55887 4.693116 -17.87489 -1.921477 -92.76507 25.04535 24.06749 0 0 -15.38417 0.7666296 10.70188 12.12817
12.91771 103.3809 79.02819 4.020008 -3.425334 5.224278 -1.877473 35.48931 3.433547 0 -9.39856 0 -2.577529 -22.56096 7.690973 0.7763388 -36.58196 -2.631894 -0 24.91762 -0 -2.844291 -0.1460457 20.53132 -3.044697 -3.237656 10.63161 -0.7065325 9.95545 -3.107672 -0.01338763 23.92192 5.427828 2.739602 -17.13971 4.564902 3.029335 -22.06465 11.99843 77.50301 33.06788 -4.72679 -0 0 21.67944 -21.31008 10.53314 13.53258 4.640228 -17.47555 -1.917519 -92.92538 24.79067 24.77573 0 0 -14.29975 0.3549764 10.35969 12.66131
14.42039 102.2714 84.15915 3.796598 -3.294162 4.890889 -2.418114 37.53278 3.823632 0 -7.118729 0 -1.426463 -22.71362 8.070435 0.8185267 -37.29247 -2.463633 -0 18.28292 -0 -2.290899 -0.7336502 20.93459 -3.069523 -3.583352 10.78034 -0.8878658 9.891868 -2.99301 0.06990644 23.5834 5.455715 2.741952 -16.98162 4.648942 2.901752 -22.72249 11.84466 76.5197 32.41379 -3.236881 -0 0 23.0849 -22.68615 10.35974 14.30108 4.3846 -17.09712 -1.971806 -93.08193 24.58734 25.4394 0 0 -12.97702 -0.09818426 10.00985 13.29108
